<?xml version="1.0" standalone="no"?>
<!DOCTYPE svg PUBLIC "-//W3C//DTD SVG 20010904//EN"
 "http://www.w3.org/TR/2001/REC-SVG-20010904/DTD/svg10.dtd">
<svg version="1.0" xmlns="http://www.w3.org/2000/svg"
 width="512.000000pt" height="512.000000pt" viewBox="0 0 512.000000 512.000000"
 preserveAspectRatio="xMidYMid meet">
<metadata>
Created by potrace 1.14, written by Peter Selinger 2001-2017
</metadata>
<g transform="translate(0.000000,512.000000) scale(0.100000,-0.100000)"
fill="#000000" stroke="none">
<path d="M0 2560 l0 -2560 2560 0 2560 0 0 2560 0 2560 -2560 0 -2560 0 0
-2560z m2065 1356 c79 -21 214 -89 262 -132 l38 -35 -51 36 c-69 47 -170 92
-252 111 -70 17 -253 20 -326 6 -25 -4 16 -7 110 -7 175 0 252 -16 370 -76
122 -63 256 -179 313 -272 l23 -37 40 61 c110 171 255 284 438 341 65 20 95
23 220 22 128 -1 156 -4 235 -28 105 -32 205 -83 283 -143 31 -24 52 -43 49
-43 -4 0 -28 16 -54 37 -68 52 -196 109 -298 134 -102 24 -267 28 -358 9 -76
-15 -68 -23 9 -9 83 16 272 5 362 -21 145 -41 257 -104 382 -215 252 -224 328
-652 189 -1068 -148 -445 -554 -910 -1162 -1330 -264 -183 -302 -201 -378
-178 -43 13 -287 174 -449 296 -599 451 -947 908 -1046 1373 -22 105 -29 288
-15 396 33 246 159 479 331 611 112 87 255 150 397 175 69 13 268 4 338 -14z
m1796 -233 c13 -16 12 -17 -3 -4 -17 13 -22 21 -14 21 2 0 10 -8 17 -17z m254
-1705 l0 -345 -35 -69 c-25 -49 -49 -79 -84 -105 -78 -59 -109 -64 -391 -64
-309 0 -306 -3 -158 127 245 215 469 487 602 731 24 43 48 76 54 74 9 -3 12
-97 12 -349z m-3075 312 c0 -4 -7 -10 -15 -14 -8 -3 -15 -17 -15 -30 0 -19 9
-29 35 -42 34 -16 48 -34 95 -119 84 -153 348 -465 503 -596 59 -50 95 -64 83
-33 -5 14 -4 15 9 4 20 -16 19 -56 -1 -64 -9 -3 -113 -6 -233 -6 -287 0 -359
19 -439 116 -63 76 -66 95 -70 458 -2 252 0 331 9 337 14 8 39 1 39 -11z m626
-772 l29 -33 -32 29 c-31 28 -38 36 -30 36 2 0 16 -15 33 -32z"/>
<path d="M1668 3883 c7 -3 16 -2 19 1 4 3 -2 6 -13 5 -11 0 -14 -3 -6 -6z"/>
<path d="M1628 3873 c7 -3 16 -2 19 1 4 3 -2 6 -13 5 -11 0 -14 -3 -6 -6z"/>
<path d="M2904 3268 c-136 -15 -222 -99 -270 -263 -15 -53 -18 -121 -21 -557
l-4 -498 26 -55 c32 -69 61 -89 116 -82 57 8 68 23 14 19 -33 -3 -54 2 -77 17
-37 23 -34 26 9 10 49 -18 89 -2 182 76 151 127 273 289 341 452 91 219 112
494 51 667 -57 162 -183 235 -367 214z"/>
<path d="M2083 3130 c-68 -10 -150 -57 -190 -108 -126 -164 -121 -503 12 -787
18 -38 40 -86 49 -107 43 -97 196 -257 293 -304 41 -21 63 -25 94 -21 62 8 66
23 6 23 -51 1 -108 22 -122 45 -4 6 8 3 26 -6 42 -22 129 -16 167 12 43 32 70
80 78 139 9 78 -3 760 -15 814 -28 129 -92 230 -171 270 -31 16 -151 43 -170
39 -3 -1 -28 -5 -57 -9z m127 -1247 c0 -2 -18 10 -40 27 -22 17 -40 34 -40 37
0 2 18 -10 40 -27 22 -17 40 -34 40 -37z"/>
<path d="M4087 2256 c-9 -20 -12 -36 -7 -36 12 0 32 48 28 62 -2 5 -11 -7 -21
-26z"/>
<path d="M3499 1523 c-13 -16 -12 -17 4 -4 16 13 21 21 13 21 -2 0 -10 -8 -17
-17z"/>
</g>
</svg>
