<?xml version="1.0" encoding="UTF-8"?>
<svg width="430px" height="932px" viewBox="0 0 430 932" version="1.1" xmlns="http://www.w3.org/2000/svg" xmlns:xlink="http://www.w3.org/1999/xlink">
    <title>bgGreenGradient</title>
    <defs>
        <radialGradient cx="100%" cy="50%" fx="100%" fy="50%" r="217.31506%" gradientTransform="translate(1.000000,0.500000),scale(1.000000,0.461373),rotate(88.745649),scale(1.000000,0.576265),translate(-1.000000,-0.500000)" id="radialGradient-1">
            <stop stop-color="#142425" offset="0%"></stop>
            <stop stop-color="#02090B" offset="100%"></stop>
        </radialGradient>
    </defs>
    <g id="bgGreenGradient" stroke="none" stroke-width="1" fill="none" fill-rule="evenodd">
        <rect fill="#131415" x="0" y="0" width="430" height="932"></rect>
        <path d="M0.000779417498,860.955333 C0.0522104904,885.354787 2.6479231,894.317013 7.47971571,903.35168 C12.3603143,912.477606 19.5223944,919.639686 28.6483203,924.520284 C37.7742462,929.400883 46.8262609,932 71.7887856,932 L71.7887856,932 L0,932 Z M358.211214,932 C383.173739,932 392.225754,929.400883 401.35168,924.520284 C410.477606,919.639686 417.639686,912.477606 422.520284,903.35168 C427.400883,894.225754 430,885.173739 430,860.211214 L430,860.211214 L430,932 Z M430,71.7887856 C430,46.8262609 427.400883,37.7742462 422.520284,28.6483203 C417.639686,19.5223944 410.477606,12.3603143 401.35168,7.47971571 C392.225754,2.59911711 383.173739,-1.68518854e-15 358.211214,2.90035286e-15 L430,0 Z M0,0 L71.044667,0.000779417498 C46.6452132,0.0522104904 37.682987,2.6479231 28.6483203,7.47971571 C19.5223944,12.3603143 12.3603143,19.5223944 7.47971571,28.6483203 C2.59911711,37.7742462 -1.12345902e-15,46.8262609 1.93356857e-15,71.7887856 L0,0 Z" id="Rectangle-2" fill="#000000"></path>
        <rect id="Rectangle" fill="url(#radialGradient-1)" x="0" y="0" width="430" height="932"></rect>
    </g>
</svg>