<?xml version="1.0" encoding="UTF-8"?>
<svg width="512px" height="512px" viewBox="0 0 512 512" version="1.1" xmlns="http://www.w3.org/2000/svg" xmlns:xlink="http://www.w3.org/1999/xlink">
    <title>iconDark</title>
    <defs>
        <linearGradient x1="50%" y1="0%" x2="50%" y2="98.0887634%" id="linearGradient-1">
            <stop stop-color="#282834" offset="0%"></stop>
            <stop stop-color="#15151B" offset="100%"></stop>
        </linearGradient>
        <linearGradient x1="50%" y1="0%" x2="50%" y2="98.6614948%" id="linearGradient-2">
            <stop stop-color="#54546B" offset="0%"></stop>
            <stop stop-color="#3D3D4F" offset="100%"></stop>
        </linearGradient>
        <linearGradient x1="50%" y1="0%" x2="50%" y2="100%" id="linearGradient-3">
            <stop stop-color="#21212B" offset="0.950611888%"></stop>
            <stop stop-color="#15151B" offset="100%"></stop>
        </linearGradient>
        <path d="M145.491937,1.37662472e-15 L366.508063,5.87804839e-15 C417.098779,-3.41531539e-15 435.444195,5.26754395 453.939405,15.1588903 C472.434615,25.0502367 486.949763,39.5653854 496.84111,58.0605951 C506.732456,76.5558047 512,94.9012209 512,145.491937 L512,366.508063 C512,417.098779 506.732456,435.444195 496.84111,453.939405 C486.949763,472.434615 472.434615,486.949763 453.939405,496.84111 C435.444195,506.732456 417.098779,512 366.508063,512 L145.491937,512 C94.9012209,512 76.5558047,506.732456 58.0605951,496.84111 C39.5653854,486.949763 25.0502367,472.434615 15.1588903,453.939405 C5.26754395,435.444195 -1.93829707e-15,417.098779 3.33597419e-15,366.508063 L3.91869893e-15,145.491937 C-2.27687693e-15,94.9012209 5.26754395,76.5558047 15.1588903,58.0605951 C25.0502367,39.5653854 39.5653854,25.0502367 58.0605951,15.1588903 C76.5558047,5.26754395 94.9012209,-7.99858607e-16 145.491937,1.37662472e-15 Z" id="path-4"></path>
        <linearGradient x1="50%" y1="0%" x2="50%" y2="99.7186407%" id="linearGradient-5">
            <stop stop-color="#FFE031" offset="0%"></stop>
            <stop stop-color="#FFC40A" offset="100%"></stop>
        </linearGradient>
        <path d="M99,212.416122 C99,157.079521 137.297583,118 186.784995,118 C217.517623,118 241.473313,135.038671 255.5,160.674837 C269.841893,134.882353 293.482377,118 324.215005,118 C373.702417,118 412,157.079521 412,212.416122 C412,279.007625 355.73565,344.504902 267.005035,400.779412 C263.537764,402.811547 258.809668,405 255.5,405 C252.190332,405 247.462236,402.811547 244.152568,400.779412 C155.26435,344.504902 99,279.007625 99,212.416122 Z M370.72646,373.029341 L338.068591,373.03394 C336.325967,373.03394 334.913291,371.634985 334.913291,369.909286 C334.913291,368.992321 335.32002,368.121639 336.025491,367.527707 L338.117755,365.75339 L338.117755,365.75339 C368.81841,339.438512 391.750455,312.25569 406.086855,284.747006 L408.313263,280.323826 L408.313263,280.323826 C408.770209,279.373271 409.918625,278.969116 410.878667,279.421283 C411.41529,279.674026 411.796131,280.153331 411.927002,280.711553 L411.976815,281.142709 L411.973868,332.182546 L411.939962,335.096665 L411.866293,337.763418 L411.722148,340.666259 L411.513421,343.278731 L411.336417,344.876797 C410.694292,350.027021 409.524456,353.469723 407.629625,356.978338 C404.886248,362.058185 400.89511,366.010558 395.765442,368.72729 L394.70274,369.268876 L394.70274,369.268876 L393.633286,369.768556 C390.04525,371.365617 386.165609,372.283798 380.203532,372.718467 L377.373989,372.882091 L377.373989,372.882091 L375.313536,372.956864 L373.101275,373.005556 L370.72646,373.029341 Z M261.296296,232.118242 L261.296296,314.94414 C261.296296,321.556861 266.709542,326.917532 273.38712,326.917532 C275.59495,326.917532 277.751851,326.319082 279.628617,325.198858 L280.719228,324.464724 C312.3118,300.60459 330.851852,269.252204 330.851852,229.906265 C330.851852,200.666326 319.235838,184.772491 297.135567,184.348267 L295.926711,184.339548 C273.085374,184.339548 261.296296,200.560709 261.296296,232.118242 Z M180.148148,243.85123 C180.148148,272.087873 193.231675,301.658565 215.590776,319.096157 L221.769858,323.776898 C229.406128,329.544153 240.317686,328.089142 246.141505,320.527039 C248.452164,317.526698 249.703704,313.857825 249.703704,310.0845 L249.697582,244.825483 C249.395687,214.497068 237.930298,198.714191 215.981207,198.293165 L213.864433,198.293165 C191.764162,198.717456 180.148148,214.611292 180.148148,243.85123 Z M103.943847,282.894869 L104.530906,284.0545 L104.530906,284.0545 C118.011262,310.188767 139.25299,336.033139 167.547349,361.123072 L172.51982,365.44726 L172.51982,365.44726 L173.87,366.582546 L173.87,366.582546 C175.427156,367.889466 175.619204,370.199032 174.299186,371.74083 C173.737402,372.397001 172.965244,372.830889 172.122881,372.978197 L171.480135,373.03394 L140.250355,373.029341 L137.87554,373.005556 L135.663279,372.956864 L132.62617,372.834558 L130.773283,372.718467 C125.183836,372.310965 121.424654,371.478501 118.02014,370.060097 L116.274075,369.268876 L115.211373,368.72729 L115.211373,368.72729 C110.081704,366.010558 106.090567,362.058185 103.34719,356.978338 C101.587704,353.720338 100.453341,350.519172 99.7861447,345.954927 L99.4633937,343.278731 L99.2546665,340.666259 L99.1105217,337.763418 L99.0368529,335.096665 L99.0029467,332.182546 L99,284.036522 C99,282.610991 100.166955,281.45537 101.606467,281.45537 C102.59883,281.45537 103.505097,282.013411 103.943847,282.894869 Z" id="path-6"></path>
        <filter x="-1.4%" y="-1.6%" width="102.9%" height="103.1%" filterUnits="objectBoundingBox" id="filter-7">
            <feMorphology radius="1.5" operator="dilate" in="SourceAlpha" result="shadowSpreadOuter1"></feMorphology>
            <feOffset dx="0" dy="0" in="shadowSpreadOuter1" result="shadowOffsetOuter1"></feOffset>
            <feColorMatrix values="0 0 0 0 0.0794117647   0 0 0 0 0.0794117647   0 0 0 0 0.1  0 0 0 1 0" type="matrix" in="shadowOffsetOuter1"></feColorMatrix>
        </filter>
        <filter x="-3.7%" y="-4.0%" width="107.3%" height="108.0%" filterUnits="objectBoundingBox" id="filter-8">
            <feGaussianBlur stdDeviation="1.5" in="SourceAlpha" result="shadowBlurInner1"></feGaussianBlur>
            <feOffset dx="0" dy="-3" in="shadowBlurInner1" result="shadowOffsetInner1"></feOffset>
            <feComposite in="shadowOffsetInner1" in2="SourceAlpha" operator="arithmetic" k2="-1" k3="1" result="shadowInnerInner1"></feComposite>
            <feColorMatrix values="0 0 0 0 1   0 0 0 0 1   0 0 0 0 1  0 0 0 0.406577797 0" type="matrix" in="shadowInnerInner1" result="shadowMatrixInner1"></feColorMatrix>
            <feGaussianBlur stdDeviation="5" in="SourceAlpha" result="shadowBlurInner2"></feGaussianBlur>
            <feOffset dx="0" dy="7" in="shadowBlurInner2" result="shadowOffsetInner2"></feOffset>
            <feComposite in="shadowOffsetInner2" in2="SourceAlpha" operator="arithmetic" k2="-1" k3="1" result="shadowInnerInner2"></feComposite>
            <feColorMatrix values="0 0 0 0 0   0 0 0 0 0   0 0 0 0 0  0 0 0 0.443618881 0" type="matrix" in="shadowInnerInner2" result="shadowMatrixInner2"></feColorMatrix>
            <feOffset dx="2" dy="2" in="SourceAlpha" result="shadowOffsetInner3"></feOffset>
            <feComposite in="shadowOffsetInner3" in2="SourceAlpha" operator="arithmetic" k2="-1" k3="1" result="shadowInnerInner3"></feComposite>
            <feColorMatrix values="0 0 0 0 1   0 0 0 0 0.898039216   0 0 0 0 0.376470588  0 0 0 1 0" type="matrix" in="shadowInnerInner3" result="shadowMatrixInner3"></feColorMatrix>
            <feGaussianBlur stdDeviation="1.5" in="SourceAlpha" result="shadowBlurInner4"></feGaussianBlur>
            <feOffset dx="0" dy="-3" in="shadowBlurInner4" result="shadowOffsetInner4"></feOffset>
            <feComposite in="shadowOffsetInner4" in2="SourceAlpha" operator="arithmetic" k2="-1" k3="1" result="shadowInnerInner4"></feComposite>
            <feColorMatrix values="0 0 0 0 0.980392157   0 0 0 0 0.835294118   0 0 0 0 0.392156863  0 0 0 1 0" type="matrix" in="shadowInnerInner4" result="shadowMatrixInner4"></feColorMatrix>
            <feMerge>
                <feMergeNode in="shadowMatrixInner1"></feMergeNode>
                <feMergeNode in="shadowMatrixInner2"></feMergeNode>
                <feMergeNode in="shadowMatrixInner3"></feMergeNode>
                <feMergeNode in="shadowMatrixInner4"></feMergeNode>
            </feMerge>
        </filter>
    </defs>
    <g id="iconDark" stroke="none" stroke-width="1" fill="none" fill-rule="evenodd">
        <g id="icon-mask" stroke-linejoin="square">
            <path stroke="url(#linearGradient-2)" stroke-width="6" d="M366.508063,3 C416.249187,3 434.328685,8.07304334 452.524608,17.8043299 C470.48928,27.4119412 484.588059,41.5107204 494.19567,59.4753917 C503.926957,77.6713155 509,95.7508125 509,145.491937 L509,145.491937 L509,366.508063 C509,416.249187 503.926957,434.328685 494.19567,452.524608 C484.588059,470.48928 470.48928,484.588059 452.524608,494.19567 C434.328685,503.926957 416.249187,509 366.508063,509 L366.508063,509 L145.491937,509 C95.7508125,509 77.6713155,503.926957 59.4753917,494.19567 C41.5107204,484.588059 27.4119412,470.48928 17.8043299,452.524608 C8.07304334,434.328685 3,416.249187 3,366.508063 L3,366.508063 L3,145.491937 C3,95.7508125 8.07304334,77.6713155 17.8043299,59.4753917 C27.4119412,41.5107204 41.5107204,27.4119412 59.4753917,17.8043299 C77.6713155,8.07304334 95.7508125,3 145.491937,3 L145.491937,3 Z" fill="url(#linearGradient-1)" fill-rule="evenodd"></path>
            <path stroke="url(#linearGradient-3)" stroke-width="4" d="M366.508063,2 C416.532385,2 434.700521,7.13787688 452.996207,16.9225167 C471.137725,26.6247064 485.375294,40.8622754 495.077483,59.0037928 C504.862123,77.2994786 510,95.4676153 510,145.491937 L510,145.491937 L510,366.508063 C510,416.532385 504.862123,434.700521 495.077483,452.996207 C485.375294,471.137725 471.137725,485.375294 452.996207,495.077483 C434.700521,504.862123 416.532385,510 366.508063,510 L366.508063,510 L145.491937,510 C95.4676153,510 77.2994786,504.862123 59.0037928,495.077483 C40.8622754,485.375294 26.6247064,471.137725 16.9225167,452.996207 C7.13787688,434.700521 2,416.532385 2,366.508063 L2,366.508063 L2,145.491937 C2,95.4676153 7.13787688,77.2994786 16.9225167,59.0037928 C26.6247064,40.8622754 40.8622754,26.6247064 59.0037928,16.9225167 C77.2994786,7.13787688 95.4676153,2 145.491937,2 L145.491937,2 Z"></path>
        </g>
        <g id="Shape" fill-rule="nonzero">
            <use fill="black" fill-opacity="1" filter="url(#filter-7)" xlink:href="#path-6"></use>
            <use fill="url(#linearGradient-5)" xlink:href="#path-6"></use>
            <use fill="black" fill-opacity="1" filter="url(#filter-8)" xlink:href="#path-6"></use>
        </g>
    </g>
</svg>