<?xml version="1.0" encoding="UTF-8"?>
<svg width="468px" height="963px" viewBox="0 0 468 963" version="1.1" xmlns="http://www.w3.org/2000/svg" xmlns:xlink="http://www.w3.org/1999/xlink">
    <title>Mode1</title>
    <g id="Mode1" stroke="none" stroke-width="1" fill="none" fill-rule="evenodd">
        <path d="M372.130435,0.725 L374.080272,0.74184931 L375.98053,0.76288001 L377.832245,0.79228724 L379.636456,0.830050375 L381.394201,0.876148791 L383.945966,0.960879946 L385.592086,1.02772633 L387.195373,1.1028358 L389.522262,1.23094819 L391.023006,1.32662516 L392.48455,1.43049304 L393.90793,1.5425312 L395.294186,1.66271901 L395.973716,1.72586259 L397.306231,1.85823621 C397.963769,1.92644926 398.608358,1.9976991 399.240583,2.07197412 L400.488718,2.2245543 C400.69405,2.25065545 400.898052,2.27709187 401.100745,2.30386313 L402.301366,2.46850538 C402.498909,2.49661429 402.695187,2.52505718 402.89022,2.55383363 L404.045663,2.73049153 C404.235806,2.76060047 404.424748,2.79104211 404.612511,2.82181601 L405.72511,3.01044316 C405.908243,3.0425444 406.090239,3.07497705 406.271121,3.10774067 L407.343213,3.30829066 C407.872745,3.41054806 408.392637,3.51577651 408.903472,3.62396441 L409.91324,3.84428267 C411.077618,4.10591621 412.194807,4.38362014 413.272223,4.6772471 L414.186156,4.93282342 L414.636141,5.06352978 L415.522799,5.33076598 L416.392572,5.60574964 L417.246496,5.88846015 C418.233901,6.22278839 419.191069,6.57285015 420.125417,6.93849805 L420.920871,7.25572412 L421.706186,7.5805636 L422.4824,7.91299585 L423.631926,8.42583558 L424.766813,8.95564305 L425.517001,9.31824018 L426.263277,9.68832696 L427.006679,10.0658828 L427.748246,10.450887 L428.489014,10.843319 C440.834274,17.4456359 450.522905,27.1342676 457.125222,39.4795269 L457.711086,40.5909141 L458.092369,41.3332688 L458.466193,42.0779783 L458.832537,42.8260806 L459.191382,43.5786135 L459.715541,44.7179907 L460.055545,45.4861412 L460.551348,46.6538099 L461.030043,47.8431241 L461.339635,48.6497554 C461.492519,49.0560383 461.642533,49.4669019 461.789664,49.8829299 L462.080081,50.7220448 L462.222401,51.147091 L462.501251,52.0088098 L462.772363,52.8868953 L462.905011,53.3323999 L463.16448,54.2369814 C463.590442,55.7601302 463.98395,57.3622851 464.344577,59.0650692 L464.557003,60.0989881 C464.626494,60.4477683 464.694667,60.8007466 464.761517,61.158096 L464.958098,62.2434307 L465.053407,62.7962575 L465.23805,63.9228786 L465.327378,64.4969324 L465.500036,65.6671752 C465.556254,66.0622615 465.611136,66.4624109 465.664678,66.8677964 L465.821284,68.0998341 L465.896567,68.7279585 L466.04108,70.0090669 L466.110305,70.6623104 L466.242679,71.9948248 L466.42601,74.0606109 L466.538048,75.4839916 L466.591005,76.2099282 L466.69078,77.6909424 L466.782353,79.2116763 L466.825058,79.9872625 L466.904292,81.5695221 L466.975272,83.1940963 L467.052361,85.2858999 L467.116482,87.4474689 L467.158416,89.2283175 L467.192003,91.0561511 L467.217225,92.9320078 L467.23406,94.8569254 L467.242487,96.831942 L467.242487,866.543058 L467.23406,868.518075 L467.217225,870.442992 L467.192003,872.318849 L467.158416,874.146683 L467.116482,875.927531 L467.066224,877.662432 L466.975272,880.180904 L466.904292,881.805478 L466.825058,883.387737 L466.737593,884.92872 L466.591005,887.165072 L466.483049,888.607404 L466.42601,889.314389 L466.274504,891.04153 L466.110305,892.71269 L466.04108,893.365933 L465.896567,894.647042 C465.871809,894.857783 465.846714,895.067151 465.821284,895.275166 L465.664678,896.507204 C465.611136,896.912589 465.556254,897.312738 465.500036,897.707825 L465.327378,898.878068 L465.23805,899.452121 L465.053407,900.578742 C465.021969,900.764169 464.990199,900.948437 464.958098,901.131569 L464.761517,902.216904 C464.694667,902.574253 464.626494,902.927232 464.557003,903.276012 L464.344577,904.309931 C463.98395,906.012715 463.590442,907.61487 463.16448,909.138019 L462.905011,910.0426 L462.772363,910.488105 L462.501251,911.36619 L462.222401,912.227909 L462.080081,912.652955 L461.789664,913.49207 C461.642533,913.908098 461.492519,914.318962 461.339635,914.725245 L461.030043,915.531876 L460.712817,916.32733 L460.551348,916.72119 L460.551348,916.72119 L460.222709,917.501825 L459.801251,918.465671 L459.367985,919.418134 L459.191382,919.796387 L458.832537,920.548919 L458.466193,921.297022 L458.092369,922.041731 L457.711086,922.784086 L457.125222,923.895473 C450.522905,936.240732 440.834274,945.929364 428.489014,952.531681 L427.748246,952.924113 L427.006679,953.309117 L426.263277,953.686673 L425.517001,954.05676 L424.766813,954.419357 L423.821996,954.86204 L422.4824,955.462004 L421.706186,955.794436 L420.920871,956.119276 L420.125417,956.436502 C419.191069,956.80215 418.233901,957.152212 417.246496,957.48654 L416.392572,957.76925 L415.522799,958.044234 L414.636141,958.31147 C414.4869,958.355363 414.336912,958.398932 414.186156,958.442177 L413.272223,958.697753 C412.194807,958.99138 411.077618,959.269084 409.91324,959.530717 L408.903472,959.751036 C408.392637,959.859223 407.872745,959.964452 407.343213,960.066709 L406.271121,960.267259 L405.72511,960.364557 L404.612511,960.553184 L404.045663,960.644508 L402.89022,960.821166 L402.301366,960.906495 L401.100745,961.071137 L400.488718,961.150446 L399.240583,961.303026 C398.608358,961.377301 397.963769,961.448551 397.306231,961.516764 L395.973716,961.649137 L395.294186,961.712281 L393.90793,961.832469 L392.48455,961.944507 L391.023006,962.048375 L389.522262,962.144052 L387.589624,962.252098 L385.592086,962.347274 L383.945966,962.41412 L382.255974,962.472683 L380.521072,962.522941 L378.740224,962.564874 L375.98053,962.61212 L374.080272,962.633151 L372.130435,962.65 L95.3195653,962.65 L93.3697279,962.633151 L91.4694705,962.61212 L89.6177551,962.582713 L87.8135437,962.54495 L86.0557986,962.498851 L83.5040344,962.41412 L81.8579138,962.347274 L80.2546267,962.272164 L77.9277383,962.144052 L76.426994,962.048375 L74.9654504,961.944507 L73.5420697,961.832469 L72.155814,961.712281 L71.4762836,961.649137 L70.1437692,961.516764 C69.486231,961.448551 68.8416416,961.377301 68.2094173,961.303026 L66.9612821,961.150446 C66.7559497,961.124345 66.551948,961.097908 66.3492552,961.071137 L65.148634,960.906495 C64.9510908,960.878386 64.7548134,960.849943 64.5597801,960.821166 L63.4043374,960.644508 C63.2141943,960.6144 63.025252,960.583958 62.837489,960.553184 L61.7248895,960.364557 C61.5417572,960.332456 61.3597609,960.300023 61.178879,960.267259 L60.1067874,960.066709 C59.5772551,959.964452 59.0573632,959.859223 58.546528,959.751036 L57.53676,959.530717 C56.3723819,959.269084 55.255193,958.99138 54.1777767,958.697753 L53.2638441,958.442177 L52.8138587,958.31147 L51.9272006,958.044234 L51.0574282,957.76925 L50.2035036,957.48654 C49.2160989,957.152212 48.258931,956.80215 47.3245829,956.436502 L46.5291287,956.119276 L45.7438137,955.794436 L44.9675999,955.462004 L43.8180737,954.949164 L42.6831871,954.419357 L41.9329993,954.05676 L41.1867231,953.686673 L40.4433207,953.309117 L39.7017542,952.924113 L38.9609857,952.531681 C26.6157264,945.929364 16.9270947,936.240732 10.3247778,923.895473 L9.73891392,922.784086 L9.35763132,922.041731 L8.98380745,921.297022 L8.61746291,920.548919 L8.25861835,919.796387 L7.73445906,918.657009 L7.39445465,917.888859 L6.89865227,916.72119 L6.41995685,915.531876 L6.11036481,914.725245 C5.95748074,914.318962 5.80746716,913.908098 5.66033568,913.49207 L5.36991895,912.652955 L5.22759913,912.227909 L4.94874946,911.36619 L4.67763695,910.488105 L4.54498857,910.0426 L4.28552047,909.138019 C3.85955849,907.61487 3.46604951,906.012715 3.1054232,904.309931 L2.89299678,903.276012 C2.82350557,902.927232 2.7553331,902.574253 2.68848282,902.216904 L2.49190196,901.131569 L2.39659288,900.578742 L2.21195033,899.452121 L2.12262201,898.878068 L1.94996417,897.707825 C1.89374635,897.312738 1.83886445,896.912589 1.78532193,896.507204 L1.6287159,895.275166 L1.55343292,894.647042 L1.40891989,893.365933 L1.33969501,892.71269 L1.20732139,891.380175 L1.02398999,889.314389 L0.911951837,887.891008 L0.858995325,887.165072 L0.759220323,885.684058 L0.66764654,884.163324 L0.62494155,883.387737 L0.545708264,881.805478 L0.474727758,880.180904 L0.39763902,878.0891 L0.333517759,875.927531 L0.291584406,874.146683 L0.257996645,872.318849 L0.232775102,870.442992 L0.215940401,868.518075 L0.207513168,866.543058 L0.207513168,96.831942 L0.215940401,94.8569254 L0.232775102,92.9320078 L0.257996645,91.0561511 L0.291584406,89.2283175 L0.333517759,87.4474689 L0.38377608,85.7125676 L0.474727758,83.1940963 L0.545708264,81.5695221 L0.62494155,79.9872625 L0.71240699,78.4462795 L0.858995325,76.2099282 L0.966950919,74.7675958 L1.02398999,74.0606109 L1.17549572,72.3334704 L1.33969501,70.6623104 L1.40891989,70.0090669 L1.55343292,68.7279585 C1.57819126,68.517217 1.60328573,68.3078494 1.6287159,68.0998341 L1.78532193,66.8677964 C1.83886445,66.4624109 1.89374635,66.0622615 1.94996417,65.6671752 L2.12262201,64.4969324 L2.21195033,63.9228786 L2.39659288,62.7962575 C2.42803088,62.6108315 2.45980072,62.4265631 2.49190196,62.2434307 L2.68848282,61.158096 C2.7553331,60.8007466 2.82350557,60.4477683 2.89299678,60.0989881 L3.1054232,59.0650692 C3.46604951,57.3622851 3.85955849,55.7601302 4.28552047,54.2369814 L4.54498857,53.3323999 L4.67763695,52.8868953 L4.94874946,52.0088098 L5.22759913,51.147091 L5.36991895,50.7220448 L5.66033568,49.8829299 C5.80746716,49.4669019 5.95748074,49.0560383 6.11036481,48.6497554 L6.41995685,47.8431241 L6.73718292,47.0476699 L6.89865227,46.6538099 L6.89865227,46.6538099 L7.22729071,45.8731752 L7.6487492,44.9093292 L8.082015,43.9568658 L8.25861835,43.5786135 L8.61746291,42.8260806 L8.98380745,42.0779783 L9.35763132,41.3332688 L9.73891392,40.5909141 L10.3247778,39.4795269 C16.9270947,27.1342676 26.6157264,17.4456359 38.9609857,10.843319 L39.7017542,10.450887 L40.4433207,10.0658828 L41.1867231,9.68832696 L41.9329993,9.31824018 L42.6831871,8.95564305 L43.6280039,8.51296039 L44.9675999,7.91299585 L45.7438137,7.5805636 L46.5291287,7.25572412 L47.3245829,6.93849805 C48.258931,6.57285015 49.2160989,6.22278839 50.2035036,5.88846015 L51.0574282,5.60574964 L51.9272006,5.33076598 L52.8138587,5.06352978 C52.9630998,5.01963718 53.1130877,4.97606825 53.2638441,4.93282342 L54.1777767,4.6772471 C55.255193,4.38362014 56.3723819,4.10591621 57.53676,3.84428267 L58.546528,3.62396441 C59.0573632,3.51577651 59.5772551,3.41054806 60.1067874,3.30829066 L61.178879,3.10774067 L61.7248895,3.01044316 L62.837489,2.82181601 L63.4043374,2.73049153 L64.5597801,2.55383363 L65.148634,2.46850538 L66.3492552,2.30386313 L66.9612821,2.2245543 L68.2094173,2.07197412 C68.8416416,1.9976991 69.486231,1.92644926 70.1437692,1.85823621 L71.4762836,1.72586259 L72.155814,1.66271901 L73.5420697,1.5425312 L74.9654504,1.43049304 L76.426994,1.32662516 L77.9277383,1.23094819 L79.860376,1.12290186 L81.8579138,1.02772633 L83.5040344,0.960879946 L85.1940264,0.902317283 L86.9289277,0.852058962 L88.7097763,0.810125609 L91.4694705,0.76288001 L93.3697279,0.74184931 L95.3195653,0.725 L372.130435,0.725 Z M369.736113,834 C354.553207,834 342.24503,846.308177 342.24503,861.491083 C342.24503,876.673989 354.553207,888.982166 369.736113,888.982166 C384.919019,888.982166 397.227196,876.673989 397.227196,861.491083 C397.227196,846.308177 384.919019,834 369.736113,834 Z M97.4910832,834 C82.3081772,834 70,846.308177 70,861.491083 C70,876.673989 82.3081772,888.982166 97.4910832,888.982166 C112.673989,888.982166 124.982166,876.673989 124.982166,861.491083 C124.982166,846.308177 112.673989,834 97.4910832,834 Z M103.755528,851.805231 L103.755528,852.859251 C103.755528,853.951833 103.357057,854.813044 102.765777,855.725671 L102.765777,855.725671 L101.930273,856.959646 C101.441825,857.705173 101.120477,858.682069 101.120477,860.031729 L101.120477,860.031729 L101.120477,873.682575 C101.120477,875.302167 100.336389,876.073401 98.7939209,876.073401 L98.7939209,876.073401 L95.708984,876.073401 C94.1665155,876.073401 93.3695735,875.302167 93.3695735,873.682575 L93.3695735,873.682575 L93.3695735,860.031729 C93.3695735,858.682069 93.0610798,857.705173 92.5597776,856.959646 L92.5597776,856.959646 L91.7371277,855.725671 C91.1458482,854.813044 90.7473771,853.951833 90.7473771,852.859251 L90.7473771,852.859251 L90.7473771,851.805231 L103.755528,851.805231 Z M371.698778,851.219329 C372.670793,851.219329 373.152082,851.50244 373.623934,852.021477 L373.623934,852.021477 L374.378898,852.870811 C374.803565,853.342663 375.030054,853.493656 375.77558,853.493656 L375.77558,853.493656 L378.474575,853.493656 C380.43748,853.493656 381.437806,854.465672 381.437806,856.409703 L381.437806,856.409703 L381.437806,866.290287 C381.437806,868.234318 380.43748,869.21577 378.474575,869.21577 L378.474575,869.21577 L361.22366,869.21577 C359.251318,869.21577 358.260428,868.234318 358.260428,866.290287 L358.260428,866.290287 L358.260428,856.409703 C358.260428,854.465672 359.251318,853.493656 361.22366,853.493656 L361.22366,853.493656 L363.856595,853.493656 C364.592684,853.493656 364.82861,853.333226 365.253277,852.870811 L365.253277,852.870811 L366.008241,852.021477 C366.480093,851.50244 366.961382,851.219329 367.933397,851.219329 L367.933397,851.219329 Z M369.849117,856.117154 C366.989693,856.117154 364.696491,858.400919 364.696491,861.26978 C364.696491,864.148078 366.989693,866.431842 369.849117,866.431842 C372.699104,866.431842 374.992306,864.148078 374.992306,861.26978 C374.992306,858.400919 372.708541,856.117154 369.849117,856.117154 Z M97.2514524,859.016271 C96.1974323,858.990563 95.5161754,859.723235 95.5161754,860.815817 L95.5161754,860.815817 L95.5161754,864.337787 C95.5161754,865.417515 96.1974323,866.188749 97.2514524,866.188749 C98.2926186,866.188749 98.9867294,865.417515 98.9867294,864.337787 L98.9867294,864.337787 L98.9867294,860.815817 C98.9867294,859.761797 98.2926186,859.029125 97.2514524,859.016271 Z M97.2514524,863.155228 C97.8170242,863.155228 98.3054725,863.643676 98.3054725,864.222102 C98.3054725,864.800527 97.8170242,865.276122 97.2514524,865.276122 C96.6730267,865.276122 96.1845784,864.800527 96.1845784,864.222102 C96.1845784,863.643676 96.6730267,863.155228 97.2514524,863.155228 Z M369.849117,857.542148 C371.906393,857.542148 373.567312,859.203067 373.567312,861.26978 C373.567312,863.345929 371.906393,864.997412 369.849117,864.997412 C367.801279,864.997412 366.121485,863.345929 366.121485,861.26978 C366.121485,859.203067 367.791842,857.542148 369.849117,857.542148 Z M376.851403,856.589006 C376.19081,856.589006 375.624588,857.155229 375.624588,857.796948 C375.624588,858.476415 376.19081,859.014326 376.851403,859.014326 C377.502559,859.004889 378.059345,858.466978 378.059345,857.796948 C378.059345,857.155229 377.502559,856.589006 376.851403,856.589006 Z M101.416117,847.293511 C102.958586,847.293511 103.755528,848.064745 103.755528,849.684337 L103.755528,849.684337 L103.755528,850.301324 L90.7473771,850.301324 L90.7473771,849.684337 C90.7473771,848.064745 91.5443192,847.293511 93.0867876,847.293511 L93.0867876,847.293511 Z M404.524121,660 L63.4758792,660 C52.1833085,660 48.0883495,661.175791 43.9599544,663.383681 C39.8315594,665.591571 36.5915708,668.831559 34.3836809,672.959954 C32.1757911,677.088349 31,681.183308 31,692.475879 L31,692.475879 L31,762.524121 C31,773.816692 32.1757911,777.911651 34.3836809,782.040046 C36.5915708,786.168441 39.8315594,789.408429 43.9599544,791.616319 C48.0883495,793.824209 52.1833085,795 63.4758792,795 L405.073722,794.999053 C415.950961,794.961172 419.979329,793.788014 424.040046,791.616319 C428.168441,789.408429 431.408429,786.168441 433.616319,782.040046 C435.824209,777.911651 437,773.816692 437,762.524121 L437,762.524121 L437,692.475879 C437,681.183308 435.824209,677.088349 433.616319,672.959954 C431.408429,668.831559 428.168441,665.591571 424.040046,663.383681 C419.911651,661.175791 415.816692,660 404.524121,660 L404.524121,660 Z M266.341157,165.574429 C250.716342,165.574429 240.138718,174.27278 239.011154,187.373999 L238.957461,188.018321 L251.843906,188.018321 L251.897599,187.481386 C252.595615,180.823389 258.179741,176.581601 266.341157,176.581601 C274.663653,176.581601 279.388683,180.662309 279.388683,187.642467 L279.388683,187.749854 C279.388683,194.515237 273.697169,199.347654 265.159899,199.347654 L256.300468,199.347654 L256.300468,209.656811 L265.48206,209.656811 C275.361668,209.656811 281.375343,214.167066 281.375343,222.328482 L281.375343,222.435869 C281.375343,229.46972 275.415362,234.409524 266.448544,234.409524 C257.374339,234.409524 251.360664,229.845575 250.608955,223.563433 L250.555261,222.972804 L237.292962,222.972804 L237.346655,223.617126 C238.420525,236.610958 249.481391,245.738857 266.502237,245.738857 C283.630471,245.738857 295.443046,236.288797 295.443046,222.811723 L295.443046,222.704336 C295.443046,211.965632 287.872259,205.200248 276.435539,204.126378 L276.435539,203.85791 C285.724518,201.924943 292.704676,195.535414 292.704676,185.924274 L292.704676,185.816887 C292.704676,173.789538 282.341826,165.574429 266.341157,165.574429 Z M139.934306,166.916767 L126.242458,166.916767 L106,181.14555 L106,193.870915 L126.027684,180.125374 L126.349845,180.125374 L126.349845,244.396519 L139.934306,244.396519 L139.934306,166.916767 Z M179.738583,165.574429 C164.006381,165.574429 152.086419,175.722505 152.086419,189.897594 L152.086419,190.273449 L165.080251,190.273449 L165.080251,189.897594 C165.241332,182.434195 171.255006,176.688988 179.84597,176.688988 C187.309369,176.688988 192.517641,181.628792 192.571334,188.555256 L192.571334,188.662643 C192.571334,194.40785 190.3699,198.327477 180.221824,208.260779 L152.838128,234.946459 L152.838128,244.396519 L207.283359,244.396519 L207.283359,233.067186 L171.147619,233.067186 L171.147619,232.476557 L188.222159,216.261114 C201.860314,203.159894 206.102102,196.985139 206.102102,187.857241 L206.102102,187.749854 C206.102102,174.970795 195.25601,165.574429 179.738583,165.574429 Z M352.073636,166.916767 L332.368113,166.916767 L300.205694,217.710839 L300.205694,229.523414 L338.865029,229.523414 L338.865029,244.396519 L352.073636,244.396519 L352.073636,229.523414 L362.597566,229.523414 L362.597566,218.140387 L352.073636,218.140387 L352.073636,166.916767 Z M221.792748,218.075304 C217.443573,218.075304 214.007188,221.511689 214.007188,225.807171 C214.007188,230.156346 217.443573,233.592732 221.792748,233.592732 C226.141923,233.592732 229.524615,230.156346 229.524615,225.807171 C229.524615,221.511689 226.141923,218.075304 221.792748,218.075304 Z M339.079803,177.387004 L339.079803,218.462548 L312.662591,218.462548 L312.662591,218.086693 L338.757642,177.387004 L339.079803,177.387004 Z M221.792748,178.664259 C217.443573,178.664259 214.007188,182.046951 214.007188,186.396126 C214.007188,190.745301 217.443573,194.181687 221.792748,194.181687 C226.141923,194.181687 229.524615,190.745301 229.524615,186.396126 C229.524615,182.046951 226.141923,178.664259 221.792748,178.664259 Z M234.71481,126.846084 L231.484087,126.846084 L236.009475,139.448279 L235.83131,139.959019 L235.76561,140.128457 C235.379739,141.050773 234.759021,141.336827 233.693332,141.336827 C233.277614,141.336827 232.933161,141.277439 232.707486,141.229928 L232.707486,141.229928 L232.707486,143.486683 L232.851735,143.509348 C233.211915,143.562774 233.728965,143.617337 234.227826,143.617337 C236.852789,143.617337 238.325618,142.631492 239.287708,139.863997 L239.287708,139.863997 L243.813096,126.846084 L240.70115,126.846084 L237.743613,136.918338 L237.660469,136.918338 L234.71481,126.846084 Z M246.58059,136.645152 L243.718075,136.645152 L242.77974,142.940311 L244.846452,142.940311 L246.58059,136.645152 Z M318.297888,122 C314.603937,122 311.883953,124.48243 311.883953,127.938829 L311.883953,127.962584 C311.883953,131.18143 314.211974,133.556961 317.513963,133.556961 C319.830106,133.556961 321.540489,132.369195 322.217516,130.801344 L322.288781,130.801344 C322.288781,130.991387 322.276904,131.169552 322.265026,131.347717 C322.14625,134.590317 320.994117,137.227157 318.2385,137.227157 C316.706282,137.227157 315.661048,136.466987 315.19782,135.291099 L315.162187,135.1842 L312.121506,135.1842 L312.145262,135.314854 C312.679756,137.904184 315.055288,139.733343 318.226622,139.733343 C322.597601,139.733343 325.222563,136.348211 325.222563,130.682568 L325.222563,130.658813 C325.222563,124.648718 322.074984,122 318.297888,122 Z M198.297911,126.584776 C195.257231,126.584776 193.249907,128.140749 193.249907,130.445015 L193.249907,130.456892 C193.249907,132.321685 194.461428,133.497573 196.872592,134.032067 L198.96306,134.495296 C200.269602,134.792238 200.709076,135.219833 200.709076,135.980003 L200.709076,135.991881 C200.709076,136.918338 199.842007,137.500343 198.40481,137.500343 C196.908225,137.500343 196.088667,136.85895 195.862991,135.778083 L195.839236,135.671184 L192.92921,135.671184 L192.941087,135.778083 C193.202396,138.117982 195.090944,139.685833 198.392932,139.685833 C201.481123,139.685833 203.67849,138.094226 203.67849,135.718695 L203.67849,135.706817 C203.67849,133.877658 202.668889,132.856179 200.067682,132.274174 L197.965337,131.810945 C196.658794,131.514004 196.17181,131.038898 196.17181,130.31436 L196.17181,130.302483 C196.17181,129.376026 196.991369,128.770265 198.297911,128.770265 C199.675719,128.770265 200.4834,129.50668 200.614054,130.516281 L200.625932,130.611302 L203.381549,130.611302 L203.369671,130.480648 C203.262772,128.307036 201.433613,126.584776 198.297911,126.584776 Z M174.435697,126.846084 L171.47816,126.846084 L171.47816,134.98228 C171.47816,137.904184 173.057888,139.685833 175.825383,139.685833 C177.725808,139.685833 179.020472,138.806886 179.673744,137.464711 L179.733132,137.464711 L179.733132,139.436402 L182.690669,139.436402 L182.690669,126.846084 L179.733132,126.846084 L179.733132,134.138966 C179.733132,135.968126 178.652265,137.191524 176.95376,137.191524 C175.267133,137.191524 174.435697,136.181923 174.435697,134.400275 L174.435697,126.846084 Z M217.183387,122.296941 L214.22585,122.296941 L214.22585,129.007818 L214.154584,129.007818 C213.441925,127.499356 212.004728,126.584776 210.22308,126.584776 C207.063623,126.584776 205.032543,129.067206 205.032543,133.129365 L205.032543,133.141243 C205.032543,137.191524 207.051745,139.685833 210.234957,139.685833 C212.052239,139.685833 213.441925,138.783131 214.154584,137.298423 L214.22585,137.298423 L214.22585,139.436402 L217.183387,139.436402 L217.183387,122.296941 Z M281.584048,122.296941 L278.626511,122.296941 L278.626511,139.436402 L281.584048,139.436402 L281.584048,137.298423 L281.655314,137.298423 C282.367973,138.783131 283.757659,139.685833 285.574941,139.685833 C288.758153,139.685833 290.777355,137.191524 290.777355,133.141243 L290.777355,133.129365 C290.777355,129.067206 288.746276,126.584776 285.586819,126.584776 C283.80517,126.584776 282.367973,127.499356 281.655314,129.007818 L281.584048,129.007818 L281.584048,122.296941 Z M270.811012,126.584776 C267.212082,126.584776 264.895939,129.197861 264.895939,133.164998 L264.895939,133.176876 C264.895939,137.179647 267.176449,139.685833 270.953544,139.685833 C274.243655,139.685833 276.09657,137.737897 276.488533,135.801838 L276.524166,135.671184 L273.756671,135.671184 L273.732916,135.754328 C273.447852,136.597641 272.485762,137.381567 271.012933,137.381567 C269.088752,137.381567 267.877231,136.075025 267.82972,133.86578 L276.642942,133.86578 L276.642942,132.915568 C276.642942,129.114717 274.409943,126.584776 270.811012,126.584776 Z M225.022641,126.584776 C221.827551,126.584776 219.891493,128.259526 219.713328,130.492525 L219.701451,130.635057 L222.44519,130.635057 L222.468945,130.528158 C222.658987,129.601701 223.514179,128.94843 224.915742,128.94843 C226.412327,128.94843 227.243763,129.720478 227.243763,130.991387 L227.243763,131.858456 L223.953652,132.060376 C220.901094,132.250419 219.166956,133.592594 219.166956,135.825594 L219.166956,135.849349 C219.166956,138.094226 220.865461,139.6502 223.383525,139.6502 C225.046397,139.6502 226.44796,138.818764 227.172497,137.500343 L227.243763,137.500343 L227.243763,139.436402 L230.2013,139.436402 L230.2013,130.777589 C230.2013,128.247648 228.170221,126.584776 225.022641,126.584776 Z M155.930306,122.296941 L142.627329,122.296941 L142.627329,124.874393 L147.758477,124.874393 L147.758477,139.436402 L150.811035,139.436402 L150.811035,124.874393 L155.930306,124.874393 L155.930306,122.296941 Z M160.764512,122.296941 L157.806976,122.296941 L157.806976,139.436402 L160.764512,139.436402 L160.764512,132.179153 C160.764512,130.349993 161.857257,129.079084 163.532007,129.079084 C165.230512,129.079084 166.20448,130.243095 166.20448,132.179153 L166.20448,139.436402 L169.162016,139.436402 L169.162016,131.597148 C169.162016,128.556467 167.427878,126.584776 164.719772,126.584776 C162.831225,126.584776 161.489049,127.451845 160.835778,128.960308 L160.764512,128.960308 L160.764512,122.296941 Z M303.557715,122 C300.077561,122 297.440721,124.244877 297.440721,127.380579 L297.440721,127.463723 L300.315114,127.463723 L300.315114,127.380579 C300.350747,125.729585 301.681045,124.458675 303.58147,124.458675 C305.232465,124.458675 306.384598,125.55142 306.396475,127.083638 L306.396475,127.107393 C306.396475,128.378302 305.909491,129.245371 303.664614,131.442738 L297.607008,137.345934 L297.607008,139.436402 L309.650954,139.436402 L309.650954,136.930216 L301.65729,136.930216 L301.65729,136.799562 L305.434385,133.212509 C308.45131,130.31436 309.389645,128.94843 309.389645,126.929228 L309.389645,126.905473 C309.389645,124.07859 306.990358,122 303.557715,122 Z M263.898215,122.296941 L252.97077,122.296941 L252.97077,139.436402 L256.035206,139.436402 L256.035206,132.440461 L263.221189,132.440461 L263.221189,129.946153 L256.035206,129.946153 L256.035206,124.874393 L263.898215,124.874393 L263.898215,122.296941 Z M191.016907,126.584776 C189.567833,126.584776 188.522599,127.499356 188.130636,129.019696 L188.071248,129.019696 L188.071248,126.846084 L185.113711,126.846084 L185.113711,139.436402 L188.071248,139.436402 L188.071248,132.131642 C188.071248,130.26685 189.080849,129.209738 190.755598,129.209738 C191.25446,129.209738 191.705811,129.281004 191.955242,129.376026 L191.955242,126.703553 C191.729566,126.644164 191.385114,126.584776 191.016907,126.584776 Z M227.243763,133.81827 L227.243763,134.768482 C227.243763,136.265067 225.960976,137.393445 224.262471,137.393445 C222.967807,137.393445 222.112615,136.763929 222.112615,135.730572 L222.112615,135.718695 C222.112615,134.720972 222.908418,134.091456 224.36937,133.996434 L227.243763,133.81827 Z M211.125782,129.079084 C212.943063,129.079084 214.22585,130.67069 214.22585,133.129365 L214.22585,133.141243 C214.22585,135.611796 212.954941,137.191524 211.125782,137.191524 C209.225356,137.191524 208.049468,135.647429 208.049468,133.141243 L208.049468,133.129365 C208.049468,130.62318 209.237234,129.079084 211.125782,129.079084 Z M284.684117,129.079084 C286.572664,129.079084 287.76043,130.62318 287.76043,133.129365 L287.76043,133.141243 C287.76043,135.647429 286.584542,137.191524 284.684117,137.191524 C282.854957,137.191524 281.584048,135.611796 281.584048,133.141243 L281.584048,133.129365 C281.584048,130.67069 282.866835,129.079084 284.684117,129.079084 Z M270.846645,128.900919 C272.414496,128.900919 273.554751,129.898642 273.768549,131.894089 L267.865353,131.894089 C268.102906,129.958031 269.278794,128.900919 270.846645,128.900919 Z M318.333521,124.506186 C320.257702,124.506186 321.754287,125.990893 321.754287,127.891318 L321.754287,127.903196 C321.754287,129.815499 320.257702,131.193307 318.297888,131.193307 C316.349953,131.193307 314.900878,129.803621 314.900878,127.855685 L314.900878,127.83193 C314.900878,125.979015 316.433096,124.506186 318.333521,124.506186 Z" id="Source-Border-and-Shadow-Versions" fill="#0A7AFF" fill-rule="nonzero"></path>
    </g>
</svg>