<?xml version="1.0" encoding="UTF-8"?>
<svg width="19px" height="16px" viewBox="0 0 19 16" version="1.1" xmlns="http://www.w3.org/2000/svg" xmlns:xlink="http://www.w3.org/1999/xlink">
    <title>Shape</title>
    <g id="Page-1" stroke="none" stroke-width="1" fill="none" fill-rule="evenodd">
        <path d="M1.27721261,11.6000671 C1.54874186,13.1736025 2.48808628,13.8373211 4.05855274,13.5613931 L4.1759708,13.5390206 L4.1759708,13.5837657 C4.1759708,15.1796735 4.99055854,16 6.58304089,16 L16.5929299,16 C18.1780736,16 19,15.172216 19,13.5837657 L19,6.49912804 C19,4.90322019 18.1780736,4.07543621 16.5929299,4.07543621 L14.9564158,4.07543621 L14.596823,2.01716254 C14.3252938,0.451084743 13.3786107,-0.220091456 11.8154829,0.0632940504 L2.01841407,1.81580968 C0.45528624,2.09919518 -0.212528937,3.0612144 0.0590003112,4.6272922 L1.27721261,11.6000671 Z M2.66421336,11.2271915 L1.49737146,4.50051447 C1.37261478,3.77713568 1.68083717,3.35951493 2.34865235,3.24019472 L11.9769327,1.51750915 C12.6447479,1.39818893 13.0777269,1.68157444 13.2098223,2.39749572 L13.5033674,4.07543621 L6.58304089,4.07543621 C4.99055854,4.07543621 4.1759708,4.90322019 4.1759708,6.49912804 L4.1759708,12.0549755 L3.88976429,12.1071781 C3.22194912,12.2264983 2.78897005,11.9431128 2.66421336,11.2271915 Z M5.60700332,6.62590577 C5.60700332,5.90252697 5.98127336,5.53710882 6.6637658,5.53710882 L16.512205,5.53710882 C17.1873588,5.53710882 17.5689675,5.90252697 17.5689675,6.62590577 L17.5689675,12.3905636 L14.8830295,9.82517898 C14.6041616,9.5567085 14.2665847,9.42993077 13.9143306,9.42993077 C13.569415,9.42993077 13.2465154,9.54925098 12.9529703,9.81772146 L10.0615507,12.4203936 L8.91672469,11.3614267 C8.64519544,11.1078713 8.35165031,10.9960086 8.04342792,10.9960086 C7.76456005,10.9960086 7.4930308,11.1153288 7.22150155,11.3539692 L5.60700332,12.7858118 L5.60700332,6.62590577 Z M9.57720124,9.98178676 C10.4284821,9.98178676 11.1183132,9.26586548 11.1183132,8.40079393 C11.1183132,7.55063742 10.4284821,6.83471614 9.57720124,6.83471614 C8.72592035,6.83471614 8.03608929,7.55063742 8.03608929,8.40079393 C8.03608929,9.26586548 8.72592035,9.98178676 9.57720124,9.98178676 Z" id="Shape" fill="#FFFFFF" fill-rule="nonzero"></path>
    </g>
</svg>